<svg width="36" height="36" viewBox="0 0 36 36" fill="none" xmlns="http://www.w3.org/2000/svg">
<path d="M21.965 17.9988L35.4249 4.53834C35.7951 4.16781 35.9994 3.67346 36 3.14634C36 2.61893 35.7957 2.124 35.4249 1.75405L34.2454 0.574829C33.8745 0.203415 33.3802 0 32.8525 0C32.3257 0 31.8313 0.203415 31.4605 0.574829L18.0006 14.0344L4.5401 0.574829C4.16985 0.203415 3.67522 0 3.1478 0C2.62098 0 2.12634 0.203415 1.7561 0.574829L0.576 1.75405C-0.192 2.52205 -0.192 3.77122 0.576 4.53834L14.0362 17.9988L0.576 31.4587C0.205463 31.8299 0.00146341 32.3242 0.00146341 32.8513C0.00146341 33.3784 0.205463 33.8728 0.576 34.2436L1.7558 35.4228C2.12605 35.794 2.62098 35.9977 3.14751 35.9977C3.67493 35.9977 4.16956 35.794 4.5398 35.4228L18.0003 21.9629L31.4602 35.4228C31.831 35.794 32.3254 35.9977 32.8522 35.9977H32.8528C33.3799 35.9977 33.8742 35.794 34.2451 35.4228L35.4246 34.2436C35.7948 33.8731 35.9991 33.3784 35.9991 32.8513C35.9991 32.3242 35.7948 31.8299 35.4246 31.459L21.965 17.9988Z" fill="#EEE7E7"/>
</svg>
