<svg width="44" height="44" viewBox="0 0 44 44" fill="none" xmlns="http://www.w3.org/2000/svg">
<path d="M22 11.4821C16.2006 11.4821 11.4821 16.2006 11.4821 22C11.4821 27.7994 16.2006 32.5179 22 32.5179C27.7994 32.5179 32.5179 27.7994 32.5179 22C32.5179 16.2006 27.7994 11.4821 22 11.4821ZM22 29.8885C17.6504 29.8885 14.1115 26.3496 14.1115 22C14.1115 17.6504 17.6504 14.1115 22 14.1115C26.3496 14.1115 29.8885 17.6504 29.8885 22C29.8885 26.3496 26.3496 29.8885 22 29.8885Z" fill="#EEE7E7"/>
<path d="M42.9647 16.9901L39.5829 16.2549C39.2889 15.3546 38.9247 14.4764 38.4946 13.6305L40.3668 10.7184C40.7011 10.198 40.6276 9.51489 40.1906 9.07782L34.9222 3.80945C34.4851 3.37238 33.802 3.29886 33.2816 3.63321L30.3695 5.50537C29.5236 5.07535 28.6454 4.71112 27.7451 4.41705L27.0099 1.03528C26.8786 0.43103 26.3435 0 25.7252 0H18.2748C17.6565 0 17.1214 0.43103 16.9901 1.03528L16.2549 4.41705C15.3546 4.71112 14.4764 5.07535 13.6305 5.50537L10.7184 3.63321C10.198 3.29886 9.51489 3.37238 9.07782 3.80945L3.80945 9.07782C3.37238 9.51489 3.29886 10.198 3.63321 10.7184L5.50537 13.6305C5.07535 14.4764 4.71112 15.3546 4.41705 16.2549L1.03528 16.9901C0.43103 17.1217 0 17.6565 0 18.2748V25.7252C0 26.3435 0.43103 26.8783 1.03528 27.0099L4.41705 27.7451C4.71112 28.6454 5.07535 29.5236 5.50537 30.3695L3.63321 33.2816C3.29886 33.802 3.37238 34.4851 3.80945 34.9222L9.07782 40.1906C9.51489 40.6276 10.198 40.7011 10.7184 40.3668L13.6305 38.4946C14.4764 38.9247 15.3546 39.2889 16.2549 39.5829L16.9901 42.9647C17.1214 43.569 17.6565 44 18.2748 44H25.7252C26.3435 44 26.8786 43.569 27.0099 42.9647L27.7451 39.5829C28.6454 39.2889 29.5236 38.9247 30.3695 38.4946L33.2816 40.3668C33.802 40.7011 34.4851 40.628 34.9222 40.1906L40.1906 34.9222C40.6276 34.4851 40.7011 33.802 40.3668 33.2816L38.4946 30.3695C38.9247 29.5236 39.2889 28.6454 39.5829 27.7451L42.9647 27.0099C43.569 26.8783 44 26.3435 44 25.7252V18.2748C44 17.6565 43.569 17.1217 42.9647 16.9901ZM41.3705 24.6654L38.2697 25.3395C37.7934 25.4432 37.4134 25.8017 37.2824 26.271C36.9417 27.4933 36.4516 28.6753 35.8259 29.7841C35.5862 30.2087 35.601 30.731 35.8648 31.1413L37.5819 33.812L33.8124 37.5819L31.1413 35.8648C30.731 35.601 30.2087 35.5862 29.7844 35.8259C28.6753 36.4516 27.4933 36.9417 26.271 37.2824C25.8017 37.4134 25.4432 37.7934 25.3395 38.2697L24.6654 41.3705H19.3346L18.6605 38.2697C18.5568 37.7934 18.1983 37.4134 17.729 37.2824C16.5067 36.9417 15.3247 36.4516 14.2159 35.8259C13.7913 35.5862 13.269 35.6013 12.8587 35.8648L10.188 37.5819L6.41846 33.812L8.13519 31.1413C8.39905 30.731 8.41415 30.2087 8.17447 29.7841C7.54874 28.6753 7.05862 27.4933 6.71756 26.271C6.58664 25.8017 6.20697 25.4432 5.73062 25.3395L2.62949 24.6654V19.3346L5.73029 18.6605C6.20663 18.5568 6.58664 18.1983 6.71756 17.729C7.05829 16.5067 7.5484 15.3247 8.17413 14.2159C8.41382 13.7913 8.39905 13.269 8.13519 12.8587L6.41812 10.188L10.1876 6.41812L12.8587 8.13519C13.269 8.39905 13.7913 8.41382 14.2156 8.17413C15.3247 7.5484 16.5067 7.05829 17.729 6.71756C18.1983 6.58664 18.5568 6.20663 18.6605 5.73029L19.3346 2.62949H24.6654L25.3395 5.73029C25.4432 6.20663 25.8017 6.58664 26.271 6.71756C27.4933 7.05829 28.6753 7.5484 29.7841 8.17413C30.2087 8.41382 30.731 8.39871 31.1413 8.13519L33.812 6.41812L37.5815 10.188L35.8648 12.8587C35.601 13.269 35.5858 13.7913 35.8255 14.2159C36.4516 15.3247 36.9414 16.5067 37.2824 17.729C37.4134 18.1983 37.793 18.5568 38.2694 18.6605L41.3705 19.3346V24.6654Z" fill="#EEE7E7"/>
</svg>
